<?xml version="1.0" encoding="UTF-8" standalone="no"?>
<!-- Created with Inkscape (http://www.inkscape.org/) -->

<svg
   width="201.67908mm"
   height="100.77982mm"
   viewBox="0 0 201.67908 100.77982"
   version="1.1"
   id="svg1"
   xml:space="preserve"
   xmlns:xlink="http://www.w3.org/1999/xlink"
   xmlns="http://www.w3.org/2000/svg"
   xmlns:svg="http://www.w3.org/2000/svg"><defs
     id="defs1"><linearGradient
       id="linearGradient62"><stop
         style="stop-color:#323232;stop-opacity:0;"
         offset="0"
         id="stop63" /><stop
         style="stop-color:#323232;stop-opacity:0.16839199;"
         offset="1"
         id="stop62" /></linearGradient><linearGradient
       id="linearGradient56"><stop
         id="stop55"
         offset="0.2388504"
         style="stop-color:#db9757;stop-opacity:1;" /><stop
         id="stop56"
         offset="1"
         style="stop-color:#e1a46b;stop-opacity:0;" /></linearGradient><linearGradient
       id="linearGradient10040-9"><stop
         style="stop-color:#96805a;stop-opacity:1;"
         offset="0"
         id="stop10036" /><stop
         style="stop-color:#96805a;stop-opacity:0;"
         offset="1"
         id="stop10038" /></linearGradient><linearGradient
       id="linearGradient10002-1"><stop
         id="stop9998"
         offset="0"
         style="stop-color:#000000;stop-opacity:1;" /><stop
         id="stop10000"
         offset="1"
         style="stop-color:#e1a46b;stop-opacity:0;" /></linearGradient><linearGradient
       xlink:href="#linearGradient10002-1"
       id="linearGradient49"
       gradientUnits="userSpaceOnUse"
       gradientTransform="translate(75.555927,33.072916)"
       x1="148.5231"
       y1="144.97304"
       x2="205.07617"
       y2="144.97304" /><clipPath
       clipPathUnits="userSpaceOnUse"
       id="clipPath52"><g
         id="g54"
         style="display:none"><path
           style="fill:#ffffff;fill-opacity:1;stroke:#000000;stroke-width:0.294;stroke-linejoin:round;stroke-dasharray:none;stroke-opacity:1"
           d="m 260.64468,175.38549 c 0.68511,-3.07237 -3.61563,-5.15015 -3.92522,-7.76013 -0.16896,-1.42446 2.21762,-1.79868 3.39352,-1.21441 4.41062,2.19151 3.63539,6.31609 0.5317,8.97454 z"
           id="path52" /><path
           style="fill:#ffffff;fill-opacity:1;stroke:#000000;stroke-width:0.294;stroke-linejoin:round;stroke-dasharray:none;stroke-opacity:1"
           d="m 241.11812,167.39021 c -0.39626,-1.8189 -1.64666,-2.96572 -2.84276,-4.21544 -0.77495,-0.8097 -2.0315,-1.5827 -2.59115,-2.58106 -1.19105,-2.1247 -10.13647,-5.52036 -7.97397,-1.10487 1.44557,2.95162 9.15579,13.71 12.73669,11.69548 1.33842,-0.75295 0.93129,-2.573 0.67118,-3.79406 z"
           id="path53" /><path
           style="fill:#fcfcfc;fill-opacity:1;stroke:#000000;stroke-width:0.294;stroke-linejoin:round;stroke-dasharray:none;stroke-opacity:1"
           d="m 254.64046,161.93559 c -0.58224,-3.29729 -2.56028,-6.1815 -3.18994,-9.28795 -1.69258,-8.35049 8.76677,-16.10625 16.3898,-13.0831 6.32688,2.50912 8.38135,18.59337 2.89956,22.69004 -1.30757,0.97717 -1.12605,3.98722 -2.49435,5.03347 -1.12319,0.85884 -1.50931,-1.47523 -2.95421,-3.22364 -2.60494,-1.96097 -7.55793,-3.64044 -10.66391,-2.13259"
           id="path54" /></g><path
         id="lpe_path-effect54"
         class="powerclip"
         d="m 219.07903,128.22921 h 66.55307 v 99.63348 h -66.55307 z m 41.56565,47.15628 c 3.10369,-2.65845 3.87892,-6.78303 -0.5317,-8.97454 -1.1759,-0.58427 -3.56248,-0.21005 -3.39352,1.21441 0.30959,2.60998 4.61033,4.68776 3.92522,7.76013 z m -19.52656,-7.99528 c -0.39626,-1.8189 -1.64666,-2.96572 -2.84276,-4.21544 -0.77495,-0.8097 -2.0315,-1.5827 -2.59115,-2.58106 -1.19105,-2.1247 -10.13647,-5.52036 -7.97397,-1.10487 1.44557,2.95162 9.15579,13.71 12.73669,11.69548 1.33842,-0.75295 0.93129,-2.573 0.67118,-3.79406 z m 13.50929,-5.45839 c 3.10598,-1.50785 8.05897,0.17162 10.66391,2.13259 1.4449,1.74841 1.83102,4.08248 2.95421,3.22364 1.3683,-1.04625 1.18678,-4.0563 2.49435,-5.03347 5.48179,-4.09667 3.42732,-20.18092 -2.89956,-22.69004 -7.62303,-3.02315 -18.08238,4.73261 -16.3898,13.0831 0.62966,3.10645 2.6077,5.99066 3.18994,9.28795" /></clipPath><radialGradient
       xlink:href="#linearGradient10040-9"
       id="radialGradient10050-5"
       cx="779.77399"
       cy="1236.5084"
       fx="779.77399"
       fy="1236.5084"
       r="36.630795"
       gradientTransform="matrix(0.68183408,-0.04500272,0.18018703,1.4826899,-636.20085,-1655.3167)"
       gradientUnits="userSpaceOnUse" /><linearGradient
       xlink:href="#linearGradient56"
       id="linearGradient1"
       gradientUnits="userSpaceOnUse"
       gradientTransform="matrix(0.28180823,-0.09680627,0.11961084,0.24909541,-249.97999,-89.874127)"
       x1="726.91785"
       y1="1221.4805"
       x2="552.03345"
       y2="1500.291" /><radialGradient
       xlink:href="#linearGradient10040-9"
       id="radialGradient10042-2"
       cx="716.32196"
       cy="1241.0525"
       fx="716.32196"
       fy="1241.0525"
       r="38.421555"
       gradientTransform="matrix(2.2720173,0.46102652,-0.44424565,1.9087108,-975.67089,-2549.7616)"
       gradientUnits="userSpaceOnUse" /><clipPath
       clipPathUnits="userSpaceOnUse"
       id="clipath_lpe_path-effect5-7-6"><path
         style="display:none;fill:#f5f5f5;fill-opacity:1;stroke:#000000;stroke-width:0.28838;stroke-linecap:butt;stroke-linejoin:miter;stroke-miterlimit:4;stroke-dasharray:none;stroke-opacity:1"
         d="m 117.34066,50.103703 c -1.83163,-3.00895 5.57963,-3.97048 6.61458,-2.208228 0.50885,0.866598 0.25838,2.504599 0.26556,3.5375 0,0.281879 0.21894,1.588889 0.0123,1.769049 -2.1037,1.834309 -6.88099,-1.44522 -6.89251,-3.098321 z"
         id="path61" /><path
         id="lpe_path-effect5-7-6"
         style="fill:#f5f5f5;fill-opacity:1;stroke:#000000;stroke-width:0.28838;stroke-linecap:butt;stroke-linejoin:miter;stroke-miterlimit:4;stroke-dasharray:none;stroke-opacity:1"
         class="powerclip"
         d="m 102.27506,39.451777 h 29.76821 v 21.330016 h -29.76821 z m 15.0656,10.651926 h -7e-5 c 0.0115,1.653101 4.78881,4.93263 6.89251,3.098321 0.20664,-0.18016 -0.0123,-1.48717 -0.0123,-1.769049 -0.007,-1.032901 0.24329,-2.670902 -0.26556,-3.5375 -1.03495,-1.762252 -8.44621,-0.800722 -6.61458,2.208228 z" /></clipPath><linearGradient
       xlink:href="#linearGradient62"
       id="linearGradient63"
       x1="-12.292231"
       y1="161.95668"
       x2="101.81211"
       y2="161.95668"
       gradientUnits="userSpaceOnUse" /></defs><g
     id="layer1"
     transform="translate(12.292231,-93.837419)"><path
       style="fill:none;fill-opacity:1;stroke:#000000;stroke-width:0.294;stroke-linejoin:round;stroke-dasharray:none;stroke-opacity:1"
       d="m 165.70004,143.90429 c 1.17487,-2.92036 -2.73143,-5.66888 -2.61314,-8.29449 0.0646,-1.43299 2.48025,-1.41474 3.54567,-0.64729 3.99626,2.87857 2.56162,6.82254 -0.93253,8.94178 z"
       id="path7-9-6-3-3-6" /><path
       style="fill:none;fill-opacity:1;stroke:#000000;stroke-width:0.294;stroke-linejoin:round;stroke-dasharray:none;stroke-opacity:1"
       d="m 147.66618,132.8136 c -0.0957,-1.8591 -1.14327,-3.19373 -2.12058,-4.62107 -0.6332,-0.92479 -1.74757,-1.89155 -2.13769,-2.96753 -0.83026,-2.2899 -9.10563,-7.09295 -7.68876,-2.38493 0.94714,3.14716 6.80822,15.01468 10.6687,13.60832 1.44292,-0.52564 1.33671,-2.38765 1.27831,-3.63474 z"
       id="path18-6-6-0" /><path
       style="fill:none;fill-opacity:1;stroke:#000000;stroke-width:0.294;stroke-linejoin:round;stroke-dasharray:none;stroke-opacity:1"
       d="m 162.00255,129.75966 c -0.0391,-3.34807 -1.52262,-6.51518 -1.63954,-9.68264 -0.31426,-8.5145 11.26559,-14.46908 18.2966,-10.2483 5.83552,3.50311 5.25115,19.7075 -0.82307,22.85974 -1.44888,0.7519 -1.7585,3.75148 -3.27853,4.56167 -1.24773,0.66508 -1.24975,-1.70071 -2.39159,-3.66053 -2.25197,-2.35791 -6.86654,-4.8193 -10.17613,-3.83577"
       id="path3-1-1-1-8" /><path
       style="fill:url(#linearGradient49);stroke:#000000;stroke-width:0.294;stroke-linejoin:round;stroke-dasharray:none;stroke-opacity:1"
       d="m 247.08908,185.36511 c 3.67803,-11.70144 22.57734,-9.00392 26.26157,1.7147 4.59949,13.38144 1.67598,31.83984 -15.45095,35.06816 -2.93169,0.5526 -6.15286,1.12929 -9.49567,-0.50335 -3.95275,-1.93054 -10.64071,-6.76113 -13.06834,-13.48651 -2.33932,-6.48074 -3.70215,-12.84436 -2.14759,-17.94639 0.97832,-3.21082 9.15499,-8.54489 6.48106,-12.08442 -2.20544,-2.91941 -7.04365,-5.55259 -10.48961,-9.58899 -3.37649,-3.95503 -6.17308,-7.27469 -4.41088,-13.05877 1.72893,-5.67492 12.02129,1.43988 14.47992,3.23318 0.30949,0.22574 3.37649,4.13733 3.42482,4.08304 1.60232,-1.80011 0.31946,-6.87126 2.05917,-12.19121 1.76981,-5.41199 4.50403,-11.83819 14.20072,-16.53252 1.48179,-0.71736 4.60851,-0.80839 6.30607,-0.582 23.58657,3.14548 16.69199,39.65945 0.3322,46.18954"
       id="path1-8-7-0-4"
       clip-path="url(#clipPath52)"
       transform="rotate(9.3444017,405.17925,-421.63465)" /><path
       style="fill:none;fill-opacity:0.97939;stroke:#000000;stroke-width:0.294;stroke-linejoin:round;stroke-dasharray:none;stroke-opacity:1"
       d="m 149.68794,165.15747 c -4.7881,-11.72709 10.60582,-2.09286 3.76533,3.56601 -4.21789,3.48928 -7.12355,0.66155 -7.72956,-3.60233 -0.303,-2.13193 -0.23788,-4.6354 0.2443,-6.8788 0.48254,-2.24497 1.86175,-4.81725 3.19252,-5.70335 13.40094,-8.92307 20.84607,8.71827 14.98323,18.48468 -5.97582,9.95461 -16.4963,6.9289 -18.0141,-3.6684"
       id="path6-4-1-0-9" /><path
       style="fill:url(#linearGradient63);stroke:#000000;stroke-width:0.387001;stroke-linejoin:round;stroke-dasharray:none;stroke-opacity:1"
       d="m -6.5258107,168.94357 c 1.2154986,-4.77417 6.38206609,-5.40071 9.8778784,-6.44809 3.4958123,-1.04737 8.5309563,-1.38342 12.3174563,-2.00128 3.786499,-0.61786 8.000571,-0.90356 11.540699,-0.61988 3.773734,0.30239 9.566851,1.11265 13.00209,1.56702 16.184621,2.14066 26.263727,6.06804 39.735244,12.8038 4.56062,2.28031 9.947399,7.32816 13.470385,10.85114 4.093847,4.09386 8.601568,10.20656 8.172078,9.22159 -7.386179,-16.93902 -7.121209,-37.75843 -15.338577,-54.17393 -1.31042,-2.61777 -9.289444,-1.9761 -11.881136,-2.62402 -14.15148,-3.53787 -29.411784,-7.31209 -44.322881,-7.9381 -7.455549,-0.313 -14.823796,0.16105 -21.9224876,1.84523 -3.5493458,0.84209 -7.0313027,1.98671 -10.423089,3.48674 -3.3917863,1.50003 -5.910282,4.00969 -9.8317094,0.92907"
       id="path60" /><path
       style="fill:url(#radialGradient10050-5);fill-opacity:1;stroke:#000000;stroke-width:0.474;stroke-linecap:butt;stroke-linejoin:miter;stroke-miterlimit:4;stroke-dasharray:none;stroke-opacity:1"
       d="m 108.15898,131.55457 c -0.0501,-0.85084 1.04793,-1.22792 1.99418,-1.37498 5.19042,-0.80609 6.47994,1.46741 10.28495,3.72873 1.56784,0.93163 4.21989,0.12425 5.45339,0.85733 0.26932,0.15994 -0.01,0.95245 -0.11002,1.08225 -0.37887,0.49071 0.42249,1.97844 0.04,2.2307 -2.697,1.77919 -8.67265,-1.19572 -9.26734,3.14358 -0.29595,2.15117 -0.51855,5.40974 0.71679,7.66459 1.10296,2.01316 5.66276,5.80811 4.96438,8.07007 -0.81684,2.64555 -6.35004,-8.12112 -6.4749,-8.26152 -1.21037,-1.36123 -1.09567,-3.41789 -2.37028,-4.8514 -1.82365,-2.05098 -6.48427,-1.93232 -7.85269,-3.25424"
       id="path4023-6-5-6" /><path
       style="fill:url(#linearGradient1);fill-opacity:1;stroke:#000000;stroke-width:0.541903;stroke-linecap:butt;stroke-linejoin:miter;stroke-miterlimit:4;stroke-dasharray:none;stroke-opacity:1"
       d="m 87.055067,137.52423 c 0.30119,9.28591 9.96245,14.50316 16.372053,20.14597 2.74284,2.41476 4.09105,5.5431 5.65048,8.38965 0.45061,0.82247 1.29488,2.32598 1.15654,3.33549 -0.14211,1.06557 -1.25243,1.96256 -1.65341,2.81329 -2.02727,4.30112 -3.73335,8.84721 -5.70458,13.02919 -1.31353,2.787 1.18154,6.12291 -0.94827,8.88193 -1.40129,1.81506 -4.828793,-14.7132 -4.946393,-15.20982 -0.98062,-4.13925 -2.16512,-8.94486 -4.57341,-12.60459 -3.02937,-4.60377 -1.44877,-13.02418 -4.11722,-17.89493 -0.74361,-1.35743 -1.79066,-2.40492 -2.15122,-3.92678 -0.3055,-1.28956 -2.59479,-8.4758 0.91568,-6.95937 z"
       id="path4039-9-8-2" /><path
       style="fill:url(#radialGradient10042-2);fill-opacity:1;stroke:#000000;stroke-width:0.432;stroke-linecap:butt;stroke-linejoin:miter;stroke-miterlimit:4;stroke-dasharray:none;stroke-opacity:1"
       d="m 110.88664,168.83884 c -0.1474,-1.13787 -0.33665,-2.13815 -0.28336,-3.25807 0.43319,-9.11233 -11.661283,-13.07063 -9.23314,-20.93519 1.68648,-5.46218 9.8939,-3.07652 7.95781,-11.24876 -1.3468,-5.68522 -13.242513,-3.25396 -15.658293,-0.12456 -2.44471,3.16695 0.58849,6.90542 2.21884,9.88126 0.80318,1.46605 -0.21817,3.3707 -0.93507,4.2995 -0.17838,0.2311 -2.58854,1.53555 -2.22574,1.94342 0.97766,1.09954 7.295203,5.48295 8.842753,6.40261 1.8271,1.08577 4.99962,6.15028 6.49528,7.83233 1.34946,1.51761 1.06525,3.82018 2.82092,5.20746 z"
       id="path4019-7-9-6" /><path
       style="fill:#96805a;fill-opacity:1;stroke:#000000;stroke-width:0.48;stroke-linecap:butt;stroke-linejoin:miter;stroke-miterlimit:4;stroke-dasharray:none;stroke-opacity:1"
       d="m 107.4061,49.038128 c 1.53257,-0.99881 5.06804,0.1889 6.50624,-0.43873 0.60944,-0.266 2.16957,-2.62471 2.87065,-3.236 0.9571,-0.83455 8.67166,-0.86369 9.40076,-0.24056 0.78186,0.66835 0.37909,2.53339 0.38466,3.3289 0.0123,1.77788 0.63039,4.89961 -0.19724,6.34888 -0.41919,0.73413 -2.03915,0.73546 -3.00842,0.73881 -3.75546,0.0132 -6.85609,0.0486 -8.4565,-2.67663 -0.36749,-0.62559 -0.47185,-1.43779 -0.97731,-1.86981 -1.17791,-1.00693 -4.01865,0.51494 -5.42505,-0.0857 -1.68847,-0.72088 -0.91047,-2.13263 0.34427,-2.49886"
       id="path4026-2-8-0-4"
       clip-path="url(#clipath_lpe_path-effect5-7-6)"
       transform="rotate(7.5960855,-689.07081,210.6717)" /><text
       xml:space="preserve"
       style="font-style:normal;font-variant:normal;font-weight:normal;font-stretch:normal;font-size:17.9372px;line-height:normal;font-family:AnjaliOldLipi;-inkscape-font-specification:AnjaliOldLipi;text-decoration-color:#000000;fill:none;fill-opacity:0.854902;stroke:#030302;stroke-width:0.819887;stroke-linejoin:round;stroke-opacity:0.85098"
       x="16.614965"
       y="111.15298"
       id="text2"><tspan
         id="tspan2"
         style="fill:none;stroke:#030302;stroke-width:0.819886;stroke-opacity:0.85098"
         x="16.614965"
         y="111.15298">Physics of Hearing</tspan></text></g></svg>
