<?xml version="1.0" encoding="UTF-8" standalone="no"?>
<!-- Created with Inkscape (http://www.inkscape.org/) -->

<svg
   width="246.82027mm"
   height="108.21072mm"
   viewBox="0 0 246.82027 108.21071"
   version="1.1"
   id="svg1"
   xml:space="preserve"
   xmlns="http://www.w3.org/2000/svg"
   xmlns:svg="http://www.w3.org/2000/svg"><defs
     id="defs1"><clipPath
       clipPathUnits="userSpaceOnUse"
       id="clipath_lpe_path-effect54-9"><g
         id="g10"
         style="display:none"><path
           style="fill:#ffffff;fill-opacity:1;stroke:#000000;stroke-width:0.294;stroke-linejoin:round;stroke-dasharray:none;stroke-opacity:1"
           d="m 260.64468,175.38549 c 0.68511,-3.07237 -3.61563,-5.15015 -3.92522,-7.76013 -0.16896,-1.42446 2.21762,-1.79868 3.39352,-1.21441 4.41062,2.19151 3.63539,6.31609 0.5317,8.97454 z"
           id="path7" /><path
           style="fill:#ffffff;fill-opacity:1;stroke:#000000;stroke-width:0.294;stroke-linejoin:round;stroke-dasharray:none;stroke-opacity:1"
           d="m 241.11812,167.39021 c -0.39626,-1.8189 -1.64666,-2.96572 -2.84276,-4.21544 -0.77495,-0.8097 -2.0315,-1.5827 -2.59115,-2.58106 -1.19105,-2.1247 -10.13647,-5.52036 -7.97397,-1.10487 1.44557,2.95162 9.15579,13.71 12.73669,11.69548 1.33842,-0.75295 0.93129,-2.573 0.67118,-3.79406 z"
           id="path8" /><path
           style="fill:#fcfcfc;fill-opacity:1;stroke:#000000;stroke-width:0.294;stroke-linejoin:round;stroke-dasharray:none;stroke-opacity:1"
           d="m 254.64046,161.93559 c -0.58224,-3.29729 -2.56028,-6.1815 -3.18994,-9.28795 -1.69258,-8.35049 8.76677,-16.10625 16.3898,-13.0831 6.32688,2.50912 8.38135,18.59337 2.89956,22.69004 -1.30757,0.97717 -1.12605,3.98722 -2.49435,5.03347 -1.12319,0.85884 -1.50931,-1.47523 -2.95421,-3.22364 -2.60494,-1.96097 -7.55793,-3.64044 -10.66391,-2.13259"
           id="path10" /></g><path
         id="lpe_path-effect54-9"
         class="powerclip"
         d="m 218.234,127.35121 h 68.25158 V 228.71395 H 218.234 Z m 42.41068,48.03428 c 3.10369,-2.65845 3.87892,-6.78303 -0.5317,-8.97454 -1.1759,-0.58427 -3.56248,-0.21005 -3.39352,1.21441 0.30959,2.60998 4.61033,4.68776 3.92522,7.76013 z m -19.52656,-7.99528 c -0.39626,-1.8189 -1.64666,-2.96572 -2.84276,-4.21544 -0.77495,-0.8097 -2.0315,-1.5827 -2.59115,-2.58106 -1.19105,-2.1247 -10.13647,-5.52036 -7.97397,-1.10487 1.44557,2.95162 9.15579,13.71 12.73669,11.69548 1.33842,-0.75295 0.93129,-2.573 0.67118,-3.79406 z m 13.50929,-5.45839 c 3.10598,-1.50785 8.05897,0.17162 10.66391,2.13259 1.4449,1.74841 1.83102,4.08248 2.95421,3.22364 1.3683,-1.04625 1.18678,-4.0563 2.49435,-5.03347 5.48179,-4.09667 3.42732,-20.18092 -2.89956,-22.69004 -7.62303,-3.02315 -18.08238,4.73261 -16.3898,13.0831 0.62966,3.10645 2.6077,5.99066 3.18994,9.28795" /></clipPath><clipPath
       clipPathUnits="userSpaceOnUse"
       id="clipath_lpe_path-effect5-7-6-8"><path
         style="display:none;fill:#f5f5f5;fill-opacity:1;stroke:#000000;stroke-width:0.28838;stroke-linecap:butt;stroke-linejoin:miter;stroke-miterlimit:4;stroke-dasharray:none;stroke-opacity:1"
         d="m 117.34066,50.103703 c -1.83163,-3.00895 5.57963,-3.97048 6.61458,-2.208228 0.50885,0.866598 0.25838,2.504599 0.26556,3.5375 0,0.281879 0.21894,1.588889 0.0123,1.769049 -2.1037,1.834309 -6.88099,-1.44522 -6.89251,-3.098321 z"
         id="path15" /><path
         id="lpe_path-effect5-7-6-8"
         style="fill:#f5f5f5;fill-opacity:1;stroke:#000000;stroke-width:0.28838;stroke-linecap:butt;stroke-linejoin:miter;stroke-miterlimit:4;stroke-dasharray:none;stroke-opacity:1"
         class="powerclip"
         d="m 101.64867,38.801469 h 31.0499 v 22.631172 h -31.0499 z m 15.69199,11.302234 h -7e-5 c 0.0115,1.653101 4.78881,4.93263 6.89251,3.098321 0.20664,-0.18016 -0.0123,-1.48717 -0.0123,-1.769049 -0.007,-1.032901 0.24329,-2.670902 -0.26556,-3.5375 -1.03495,-1.762252 -8.44621,-0.800722 -6.61458,2.208228 z" /></clipPath></defs><g
     id="layer1"
     transform="translate(144.38121,-261.08118)"><text
       xml:space="preserve"
       style="font-style:normal;font-variant:normal;font-weight:normal;font-stretch:normal;font-size:17.9372px;line-height:normal;font-family:AnjaliOldLipi;-inkscape-font-specification:AnjaliOldLipi;text-decoration-color:#000000;fill:none;fill-opacity:0.854902;stroke:#030302;stroke-width:0.819887;stroke-linejoin:round;stroke-opacity:0.85098"
       x="-89.408371"
       y="274.54114"
       id="text2-6"><tspan
         id="tspan2-0"
         style="fill:none;stroke:#030302;stroke-width:0.819886;stroke-opacity:0.85098"
         x="-89.408371"
         y="274.54114">Physics of Hearing</tspan></text><path
       style="fill:none;fill-opacity:1;stroke:#000000;stroke-width:1.852;stroke-linejoin:round;stroke-dasharray:none;stroke-opacity:1"
       d="m 75.348274,320.93008 c 1.087927,-2.70424 -2.5293,-5.24937 -2.419764,-7.68068 0.05982,-1.32695 2.296708,-1.31005 3.283285,-0.59939 3.70053,2.66555 2.372056,6.31766 -0.863521,8.28007 z"
       id="path7-9-6-3-3-6-5" /><path
       style="fill:none;fill-opacity:1;stroke:#000000;stroke-width:1.852;stroke-linejoin:round;stroke-dasharray:none;stroke-opacity:1"
       d="m 58.64895,310.66012 c -0.08862,-1.72152 -1.058666,-2.95738 -1.963654,-4.2791 -0.586342,-0.85635 -1.618247,-1.75157 -1.979497,-2.74793 -0.76882,-2.12044 -8.431798,-6.56806 -7.119779,-2.20844 0.87705,2.91427 6.3044,13.90357 9.879198,12.60128 1.336142,-0.48674 1.237791,-2.21096 1.183713,-3.36576 z"
       id="path18-6-6-0-9" /><path
       style="fill:none;fill-opacity:1;stroke:#000000;stroke-width:1.852;stroke-linejoin:round;stroke-dasharray:none;stroke-opacity:1"
       d="m 71.924404,307.83218 c -0.03621,-3.10031 -1.409944,-6.03304 -1.518211,-8.96611 -0.291004,-7.88441 10.431917,-13.39834 16.942621,-9.48991 5.403678,3.24388 4.862553,18.24912 -0.762162,21.16808 -1.34166,0.69626 -1.628368,3.47387 -3.035913,4.2241 -1.155396,0.61587 -1.157267,-1.57485 -2.214608,-3.38964 -2.085321,-2.18342 -6.358405,-4.46266 -9.42308,-3.55192"
       id="path3-1-1-1-8-2" /><path
       style="fill:none;stroke:#000000;stroke-width:2;stroke-linejoin:round;stroke-dasharray:none;stroke-opacity:1"
       d="m 247.08908,185.36511 c 3.67803,-11.70144 22.57734,-9.00392 26.26157,1.7147 4.59949,13.38144 1.67598,31.83984 -15.45095,35.06816 -2.93169,0.5526 -6.15286,1.12929 -9.49567,-0.50335 -3.95275,-1.93054 -10.64071,-6.76113 -13.06834,-13.48651 -2.33932,-6.48074 -3.70215,-12.84436 -2.14759,-17.94639 0.97832,-3.21082 9.15499,-8.54489 6.48106,-12.08442 -2.20544,-2.91941 -7.04365,-5.55259 -10.48961,-9.58899 -3.37649,-3.95503 -6.17308,-7.27469 -4.41088,-13.05877 1.72893,-5.67492 12.02129,1.43988 14.47992,3.23318 0.30949,0.22574 3.37649,4.13733 3.42482,4.08304 1.60232,-1.80011 0.31946,-6.87126 2.05917,-12.19121 1.76981,-5.41199 4.50403,-11.83819 14.20072,-16.53252 1.48179,-0.71736 4.60851,-0.80839 6.30607,-0.582 23.58657,3.14548 16.69199,39.65945 0.3322,46.18954"
       id="path1-8-7-0-4-2"
       clip-path="url(#clipath_lpe_path-effect54-9)"
       transform="matrix(0.91371049,0.150353,-0.150353,0.91371049,-136.50494,121.57407)" /><path
       style="fill:none;fill-opacity:0.97939;stroke:#000000;stroke-width:1.852;stroke-linejoin:round;stroke-dasharray:none;stroke-opacity:1"
       d="m 60.521096,340.61049 c -4.433773,-10.85926 9.820971,-1.93798 3.486689,3.30212 -3.905759,3.23107 -6.596395,0.6126 -7.157559,-3.33575 -0.280578,-1.97416 -0.220277,-4.29237 0.226221,-6.36976 0.446831,-2.07883 1.723977,-4.46076 2.956268,-5.28129 12.409248,-8.26275 19.303426,8.0731 13.874446,17.11678 -5.533599,9.21796 -15.275546,6.41615 -16.681026,-3.39693"
       id="path6-4-1-0-9-8" /><ellipse
       style="fill:none;fill-opacity:0.854902;stroke:#030302;stroke-width:1.852;stroke-linejoin:round;stroke-dasharray:none;stroke-opacity:0.85098"
       id="path13"
       cx="-40.305447"
       cy="343.90857"
       rx="2.4047368"
       ry="4.3873925"
       transform="rotate(-15.104614)" /><path
       style="fill:none;fill-opacity:1;stroke:#000000;stroke-width:2;stroke-linecap:butt;stroke-linejoin:miter;stroke-miterlimit:4;stroke-dasharray:none;stroke-opacity:1"
       d="m -21.681891,290.3617 c -0.05628,-0.95572 1.177107,-1.37928 2.240001,-1.54447 5.830238,-0.90545 7.278716,1.6483 11.5527661,4.18837 1.761106,1.04647 4.740072,0.13957 6.125624,0.96301 0.302519,0.17966 -0.01123,1.06986 -0.123582,1.21566 -0.425573,0.5512 0.47457,2.22232 0.04493,2.50568 -3.029457,1.99851 -9.7417201,-1.34312 -10.4097161,3.53108 -0.332432,2.41635 -0.582472,6.0766 0.805148,8.6094 1.23892,2.26132 6.3608031,6.52407 5.5763341,9.06486 -0.917531,2.97166 -7.1328031,-9.1222 -7.2730551,-9.27991 -1.359571,-1.52903 -1.230732,-3.83921 -2.662462,-5.44943 -2.04845,-2.3038 -7.28358,-2.17051 -8.820684,-3.65539"
       id="path4023-6-5-6-5" /><path
       style="fill:none;fill-opacity:1;stroke:#000000;stroke-width:2;stroke-linecap:butt;stroke-linejoin:miter;stroke-miterlimit:4;stroke-dasharray:none;stroke-opacity:1"
       d="m -45.387261,297.06724 c 0.338318,10.43057 11.190512,16.29095 18.390218,22.62934 3.080947,2.71243 4.59535,6.2264 6.347009,9.42384 0.506157,0.92385 1.454499,2.6127 1.299106,3.74665 -0.159628,1.19692 -1.406816,2.20448 -1.857224,3.16008 -2.27717,4.83132 -4.193557,9.9378 -6.407779,14.63529 -1.475447,3.13055 1.327188,6.87768 -1.065162,9.9768 -1.574026,2.0388 -5.424031,-16.52689 -5.556127,-17.08472 -1.1015,-4.6495 -2.432012,-10.04749 -5.13717,-14.15835 -3.402798,-5.17127 -1.627359,-14.62966 -4.624746,-20.10082 -0.835274,-1.52476 -2.011393,-2.70137 -2.416399,-4.41083 -0.343159,-1.44852 -2.914647,-9.52061 1.028555,-7.81725 z"
       id="path4039-9-8-2-0" /><path
       style="fill:none;fill-opacity:1;stroke:#000000;stroke-width:2;stroke-linecap:butt;stroke-linejoin:miter;stroke-miterlimit:4;stroke-dasharray:none;stroke-opacity:1"
       d="m -18.617995,332.24197 c -0.16557,-1.27813 -0.378148,-2.40172 -0.318289,-3.65969 0.486588,-10.2356 -13.098756,-14.68183 -10.371301,-23.51585 1.894371,-6.1355 11.113512,-3.45576 8.938762,-12.63538 -1.512819,-6.38603 -14.874902,-3.65508 -17.588473,-0.13992 -2.746067,3.55734 0.661032,7.75665 2.492354,11.09932 0.902187,1.64677 -0.245063,3.7862 -1.050335,4.82949 -0.200369,0.25959 -2.907627,1.72484 -2.500105,2.18299 1.098175,1.23508 8.194473,6.15882 9.932788,7.19185 2.052325,1.21961 5.615918,6.90842 7.295947,8.79781 1.515807,1.70469 1.196562,4.29109 3.168652,5.84938 z"
       id="path4019-7-9-6-3" /><path
       style="fill:none;fill-opacity:1;stroke:#000000;stroke-width:1.78052;stroke-linecap:butt;stroke-linejoin:miter;stroke-miterlimit:4;stroke-dasharray:none;stroke-opacity:1"
       d="m 107.4061,49.038128 c 1.53257,-0.99881 5.06804,0.1889 6.50624,-0.43873 0.60944,-0.266 2.16957,-2.62471 2.87065,-3.236 0.9571,-0.83455 8.67166,-0.86369 9.40076,-0.24056 0.78186,0.66835 0.37909,2.53339 0.38466,3.3289 0.0123,1.77788 0.63039,4.89961 -0.19724,6.34888 -0.41919,0.73413 -2.03915,0.73546 -3.00842,0.73881 -3.75546,0.0132 -6.85609,0.0486 -8.4565,-2.67663 -0.36749,-0.62559 -0.47185,-1.43779 -0.97731,-1.86981 -1.17791,-1.00693 -4.01865,0.51494 -5.42505,-0.0857 -1.68847,-0.72088 -0.91047,-2.13263 0.34427,-2.49886"
       id="path4026-2-8-0-4-6"
       clip-path="url(#clipath_lpe_path-effect5-7-6-8)"
       transform="matrix(1.1134119,0.14848344,-0.14848344,1.1134119,-118.68455,246.98276)" /><path
       style="fill:none;fill-opacity:0.854902;stroke:#030302;stroke-width:2;stroke-linejoin:round;stroke-dasharray:none;stroke-opacity:0.85098"
       d="m 9.8802851,324.78363 c -1.073081,-0.0803 -2.305105,-0.44017 -3.208011,-1.04211 -0.528813,-0.35254 -0.688475,-1.07484 -1.07489,-1.59005 -3.020931,-4.02791 1.137119,-6.24974 4.7887649,-5.03252 2.075813,0.69194 3.037641,6.56623 1.123857,7.86623 -0.303139,0.20592 -1.245462,-0.18776 -1.6297209,-0.20155 z"
       id="path17" /><ellipse
       style="fill:none;fill-opacity:0.854902;stroke:#030302;stroke-width:1.852;stroke-linejoin:round;stroke-dasharray:none;stroke-opacity:0.85098"
       id="path18"
       cx="56.316528"
       cy="355.26172"
       rx="1.9996939"
       ry="1.9241097" /><path
       style="fill:none;fill-opacity:0.854902;stroke:#030302;stroke-width:2.20116;stroke-linejoin:round;stroke-dasharray:none;stroke-opacity:0.85098"
       d="m -66.641481,328.93237 c -12.389633,-6.61769 -45.750539,-1.3492 -52.420929,11.58091 -2.30887,4.47556 7.21386,17.47412 -0.94065,20.10861 -11.57116,3.73833 -21.53974,-36.22946 -23.12787,-45.46501 -1.15811,-6.7347 5.13525,-23.55821 11.68083,-26.73031 15.2157,-7.37378 12.12215,20.96636 17.83165,26.50011 10.45857,10.13664 23.632026,-2.1193 34.969228,0.62776 7.231591,1.75223 7.561187,9.84437 12.007741,13.37793 z"
       id="path19" /><path
       style="fill:none;fill-opacity:0.854902;stroke:#030302;stroke-width:2.20116;stroke-linejoin:round;stroke-dasharray:none;stroke-opacity:0.85098"
       d="m -122.20217,312.71015 c 0.92923,-32.66095 -18.74233,-16.43897 -16.59628,4.3187"
       id="path20" /><path
       style="fill:none;fill-opacity:0.854902;stroke:#030302;stroke-width:2.20116;stroke-linejoin:round;stroke-dasharray:none;stroke-opacity:0.85098"
       d="m -133.89447,335.97366 c 1.12002,-4.72361 -2.11847,-8.58805 -3.02548,-13.01681 -1.23535,-6.03202 4.64853,-24.12132 12.15381,-24.71397"
       id="path21" /><path
       style="fill:none;fill-opacity:0.854902;stroke:#030302;stroke-width:2.20116;stroke-linejoin:round;stroke-dasharray:none;stroke-opacity:0.85098"
       d="m -122.92693,337.31755 c -2.18561,-4.07243 -7.20487,-7.81181 -4.07082,-13.11618"
       id="path22" /><path
       style="fill:none;fill-opacity:0.854902;stroke:#030302;stroke-width:2.20116;stroke-linejoin:round;stroke-dasharray:none;stroke-opacity:0.85098"
       d="m -133.17527,325.58082 c -1.02987,-3.46931 0.27346,-6.95241 3.20006,-8.71639"
       id="path30" /><path
       style="fill:none;fill-opacity:0.854902;stroke:#030302;stroke-width:2.20116;stroke-linejoin:round;stroke-dasharray:none;stroke-opacity:0.85098"
       d="m -125.24516,305.35576 c -9.97962,4.73433 -3.08722,6.2412 -0.41827,8.46353"
       id="path48" /><path
       style="fill:none;fill-opacity:0.854902;stroke:#030302;stroke-width:2.20116;stroke-linejoin:round;stroke-dasharray:none;stroke-opacity:0.85098"
       d="m -125.09686,322.88663 c 2.34035,-1.00421 3.67329,-1.47037 4.18376,-3.85921"
       id="path49" /><rect
       style="fill:#000000;fill-opacity:0.99943;stroke-width:2;stroke-linejoin:round;stroke-opacity:0.85098"
       id="rect1"
       width="2.65311"
       height="90.288055"
       x="-61.674889"
       y="279.00385" /><rect
       style="fill:#000000;fill-opacity:0.99943;stroke-width:2;stroke-linejoin:round;stroke-opacity:0.85098"
       id="rect1-5"
       width="2.65311"
       height="90.288055"
       x="25.458609"
       y="279.00165" /></g></svg>
