<?xml version="1.0" encoding="UTF-8" standalone="no"?>
<!-- Created with Inkscape (http://www.inkscape.org/) -->

<svg
   width="57.485718mm"
   height="87.467926mm"
   viewBox="0 0 57.485719 87.467924"
   version="1.1"
   id="svg1"
   xml:space="preserve"
   xmlns="http://www.w3.org/2000/svg"
   xmlns:svg="http://www.w3.org/2000/svg"><defs
     id="defs1"><clipPath
       clipPathUnits="userSpaceOnUse"
       id="clipath_lpe_path-effect54-9"><g
         id="g10"
         style="display:none"><path
           style="fill:#ffffff;fill-opacity:1;stroke:#000000;stroke-width:0.294;stroke-linejoin:round;stroke-dasharray:none;stroke-opacity:1"
           d="m 260.64468,175.38549 c 0.68511,-3.07237 -3.61563,-5.15015 -3.92522,-7.76013 -0.16896,-1.42446 2.21762,-1.79868 3.39352,-1.21441 4.41062,2.19151 3.63539,6.31609 0.5317,8.97454 z"
           id="path7" /><path
           style="fill:#ffffff;fill-opacity:1;stroke:#000000;stroke-width:0.294;stroke-linejoin:round;stroke-dasharray:none;stroke-opacity:1"
           d="m 241.11812,167.39021 c -0.39626,-1.8189 -1.64666,-2.96572 -2.84276,-4.21544 -0.77495,-0.8097 -2.0315,-1.5827 -2.59115,-2.58106 -1.19105,-2.1247 -10.13647,-5.52036 -7.97397,-1.10487 1.44557,2.95162 9.15579,13.71 12.73669,11.69548 1.33842,-0.75295 0.93129,-2.573 0.67118,-3.79406 z"
           id="path8" /><path
           style="fill:#fcfcfc;fill-opacity:1;stroke:#000000;stroke-width:0.294;stroke-linejoin:round;stroke-dasharray:none;stroke-opacity:1"
           d="m 254.64046,161.93559 c -0.58224,-3.29729 -2.56028,-6.1815 -3.18994,-9.28795 -1.69258,-8.35049 8.76677,-16.10625 16.3898,-13.0831 6.32688,2.50912 8.38135,18.59337 2.89956,22.69004 -1.30757,0.97717 -1.12605,3.98722 -2.49435,5.03347 -1.12319,0.85884 -1.50931,-1.47523 -2.95421,-3.22364 -2.60494,-1.96097 -7.55793,-3.64044 -10.66391,-2.13259"
           id="path10" /></g><path
         id="lpe_path-effect54-9"
         class="powerclip"
         d="m 218.97997,128.12644 h 66.75218 v 99.83604 h -66.75218 z m 41.66471,47.25905 c 3.10369,-2.65845 3.87892,-6.78303 -0.5317,-8.97454 -1.1759,-0.58427 -3.56248,-0.21005 -3.39352,1.21441 0.30959,2.60998 4.61033,4.68776 3.92522,7.76013 z m -19.52656,-7.99528 c -0.39626,-1.8189 -1.64666,-2.96572 -2.84276,-4.21544 -0.77495,-0.8097 -2.0315,-1.5827 -2.59115,-2.58106 -1.19105,-2.1247 -10.13647,-5.52036 -7.97397,-1.10487 1.44557,2.95162 9.15579,13.71 12.73669,11.69548 1.33842,-0.75295 0.93129,-2.573 0.67118,-3.79406 z m 13.50929,-5.45839 c 3.10598,-1.50785 8.05897,0.17162 10.66391,2.13259 1.4449,1.74841 1.83102,4.08248 2.95421,3.22364 1.3683,-1.04625 1.18678,-4.0563 2.49435,-5.03347 5.48179,-4.09667 3.42732,-20.18092 -2.89956,-22.69004 -7.62303,-3.02315 -18.08238,4.73261 -16.3898,13.0831 0.62966,3.10645 2.6077,5.99066 3.18994,9.28795" /></clipPath></defs><g
     id="layer1"
     transform="translate(1.3253332,-277.61934)"><path
       style="fill:none;fill-opacity:1;stroke:#000000;stroke-width:0.494;stroke-linejoin:round;stroke-dasharray:none;stroke-opacity:1"
       d="m 32.37335,319.0304 c 1.17487,-2.92036 -2.73143,-5.66888 -2.61314,-8.29449 0.0646,-1.43299 2.48025,-1.41474 3.54567,-0.64729 3.99626,2.87857 2.56162,6.82254 -0.93253,8.94178 z"
       id="path7-9-6-3-3-6-5" /><path
       style="fill:none;fill-opacity:1;stroke:#000000;stroke-width:0.494;stroke-linejoin:round;stroke-dasharray:none;stroke-opacity:1"
       d="m 14.33949,307.93971 c -0.0957,-1.8591 -1.14327,-3.19373 -2.12058,-4.62107 -0.6332,-0.92479 -1.74757,-1.89155 -2.13769,-2.96753 -0.83026,-2.2899 -9.10563,-7.09295 -7.68876,-2.38493 0.94714,3.14716 6.80822,15.01468 10.6687,13.60832 1.44292,-0.52564 1.33671,-2.38765 1.27831,-3.63474 z"
       id="path18-6-6-0-9" /><path
       style="fill:none;fill-opacity:1;stroke:#000000;stroke-width:0.494;stroke-linejoin:round;stroke-dasharray:none;stroke-opacity:1"
       d="m 28.67586,304.88577 c -0.0391,-3.34807 -1.52262,-6.51518 -1.63954,-9.68264 -0.31426,-8.5145 11.26559,-14.46908 18.2966,-10.2483 5.83552,3.50311 5.25115,19.7075 -0.82307,22.85974 -1.44888,0.7519 -1.7585,3.75148 -3.27853,4.56167 -1.24773,0.66508 -1.24975,-1.70071 -2.39159,-3.66053 -2.25197,-2.35791 -6.86654,-4.8193 -10.17613,-3.83577"
       id="path3-1-1-1-8-2" /><path
       style="fill:none;stroke:#000000;stroke-width:0.494;stroke-linejoin:round;stroke-dasharray:none;stroke-opacity:1"
       d="m 247.08908,185.36511 c 3.67803,-11.70144 22.57734,-9.00392 26.26157,1.7147 4.59949,13.38144 1.67598,31.83984 -15.45095,35.06816 -2.93169,0.5526 -6.15286,1.12929 -9.49567,-0.50335 -3.95275,-1.93054 -10.64071,-6.76113 -13.06834,-13.48651 -2.33932,-6.48074 -3.70215,-12.84436 -2.14759,-17.94639 0.97832,-3.21082 9.15499,-8.54489 6.48106,-12.08442 -2.20544,-2.91941 -7.04365,-5.55259 -10.48961,-9.58899 -3.37649,-3.95503 -6.17308,-7.27469 -4.41088,-13.05877 1.72893,-5.67492 12.02129,1.43988 14.47992,3.23318 0.30949,0.22574 3.37649,4.13733 3.42482,4.08304 1.60232,-1.80011 0.31946,-6.87126 2.05917,-12.19121 1.76981,-5.41199 4.50403,-11.83819 14.20072,-16.53252 1.48179,-0.71736 4.60851,-0.80839 6.30607,-0.582 23.58657,3.14548 16.69199,39.65945 0.3322,46.18954"
       id="path1-8-7-0-4-2"
       clip-path="url(#clipath_lpe_path-effect54-9)"
       transform="rotate(9.3444017,-732.89954,-1149.7596)" /><path
       style="fill:none;fill-opacity:0.97939;stroke:#000000;stroke-width:0.494;stroke-linejoin:round;stroke-dasharray:none;stroke-opacity:1"
       d="m 16.36125,340.28358 c -4.7881,-11.72709 10.60582,-2.09286 3.76533,3.56601 -4.21789,3.48928 -7.12355,0.66155 -7.72956,-3.60233 -0.303,-2.13193 -0.23788,-4.6354 0.2443,-6.8788 0.48254,-2.24497 1.86175,-4.81725 3.19252,-5.70335 13.40094,-8.92307 20.84607,8.71827 14.98323,18.48468 -5.97582,9.95461 -16.4963,6.9289 -18.0141,-3.6684"
       id="path6-4-1-0-9-8" /><ellipse
       style="fill:none;fill-opacity:0.854902;stroke:#030302;stroke-width:0.429;stroke-linejoin:round;stroke-dasharray:none;stroke-opacity:0.85098"
       id="path13"
       cx="-83.651909"
       cy="332.0293"
       rx="2.5969126"
       ry="4.7380133"
       transform="rotate(-15.104614)" /><ellipse
       style="fill:none;fill-opacity:0.854902;stroke:#030302;stroke-width:0.446;stroke-linejoin:round;stroke-dasharray:none;stroke-opacity:0.85098"
       id="path18"
       cx="11.82067"
       cy="356.10565"
       rx="2.1595006"
       ry="2.0778761" /></g></svg>
