<?xml version="1.0" encoding="UTF-8" standalone="no"?>
<!-- Created with Inkscape (http://www.inkscape.org/) -->

<svg
   width="87.463432mm"
   height="89.428871mm"
   viewBox="0 0 87.463434 89.428869"
   version="1.1"
   id="svg1"
   inkscape:export-filename="outer_ear_icon2.svg"
   inkscape:export-xdpi="96"
   inkscape:export-ydpi="96"
   xml:space="preserve"
   inkscape:version="1.3.2 (1:1.3.2+202311252150+091e20ef0f)"
   sodipodi:docname="orelha do memel.svg"
   xmlns:inkscape="http://www.inkscape.org/namespaces/inkscape"
   xmlns:sodipodi="http://sodipodi.sourceforge.net/DTD/sodipodi-0.dtd"
   xmlns="http://www.w3.org/2000/svg"
   xmlns:svg="http://www.w3.org/2000/svg"><sodipodi:namedview
     id="namedview1"
     pagecolor="#ffffff"
     bordercolor="#000000"
     borderopacity="0.25"
     inkscape:showpageshadow="2"
     inkscape:pageopacity="0.0"
     inkscape:pagecheckerboard="0"
     inkscape:deskcolor="#d1d1d1"
     inkscape:document-units="mm"
     inkscape:zoom="1"
     inkscape:cx="203"
     inkscape:cy="167"
     inkscape:window-width="1920"
     inkscape:window-height="948"
     inkscape:window-x="0"
     inkscape:window-y="795"
     inkscape:window-maximized="1"
     inkscape:current-layer="layer1"
     showguides="true"><sodipodi:guide
       position="293.72977,83.32718"
       orientation="1,0"
       id="guide43"
       inkscape:locked="false" /><sodipodi:guide
       position="265.27553,382.7624"
       orientation="0,-1"
       id="guide66"
       inkscape:locked="false" /></sodipodi:namedview><defs
     id="defs1"><inkscape:path-effect
       effect="powerclip"
       id="path-effect5-7-6-8"
       is_visible="true"
       lpeversion="1"
       inverse="true"
       flatten="false"
       hide_clip="false"
       message="Usar a regra de preenchimento par ou ímpar na caixa de diálogo &lt;b&gt;preenchimento e contorno&lt;/b&gt; se nenhum resultado nivelar após converter o clipe em caminhos." /><clipPath
       clipPathUnits="userSpaceOnUse"
       id="clipath_lpe_path-effect5-7-6-8"><path
         style="display:none;fill:#f5f5f5;fill-opacity:1;stroke:#000000;stroke-width:0.28838;stroke-linecap:butt;stroke-linejoin:miter;stroke-miterlimit:4;stroke-dasharray:none;stroke-opacity:1"
         d="m 117.34066,50.103703 c -1.83163,-3.00895 5.57963,-3.97048 6.61458,-2.208228 0.50885,0.866598 0.25838,2.504599 0.26556,3.5375 0,0.281879 0.21894,1.588889 0.0123,1.769049 -2.1037,1.834309 -6.88099,-1.44522 -6.89251,-3.098321 z"
         id="path15"
         inkscape:connector-curvature="0" /><path
         id="lpe_path-effect5-7-6-8"
         style="fill:#f5f5f5;fill-opacity:1;stroke:#000000;stroke-width:0.28838;stroke-linecap:butt;stroke-linejoin:miter;stroke-miterlimit:4;stroke-dasharray:none;stroke-opacity:1"
         class="powerclip"
         d="m 101.64867,38.801469 h 31.0499 v 22.631172 h -31.0499 z m 15.69199,11.302234 h -7e-5 c 0.0115,1.653101 4.78881,4.93263 6.89251,3.098321 0.20664,-0.18016 -0.0123,-1.48717 -0.0123,-1.769049 -0.007,-1.032901 0.24329,-2.670902 -0.26556,-3.5375 -1.03495,-1.762252 -8.44621,-0.800722 -6.61458,2.208228 z" /></clipPath></defs><g
     inkscape:label="Camada 1"
     inkscape:groupmode="layer"
     id="layer1"
     transform="translate(110.02498,-273.5238)"><path
       style="fill:none;fill-opacity:1;stroke:#000000;stroke-width:2;stroke-linecap:butt;stroke-linejoin:miter;stroke-miterlimit:4;stroke-dasharray:none;stroke-opacity:1"
       d="m -70.695491,284.11282 c -0.05628,-0.95572 1.177107,-1.37928 2.240001,-1.54447 5.830238,-0.90545 7.278716,1.6483 11.552766,4.18837 1.761106,1.04647 4.740072,0.13957 6.125624,0.96301 0.302519,0.17966 -0.01123,1.06986 -0.123582,1.21566 -0.425573,0.5512 0.47457,2.22232 0.04493,2.50568 -3.029457,1.99851 -9.74172,-1.34312 -10.409716,3.53108 -0.332432,2.41635 -0.582472,6.0766 0.805148,8.6094 1.23892,2.26132 6.360803,6.52407 5.576334,9.06486 -0.917531,2.97166 -7.132803,-9.1222 -7.273055,-9.27991 -1.359571,-1.52903 -1.230732,-3.83921 -2.662462,-5.44943 -2.04845,-2.3038 -7.28358,-2.17051 -8.820684,-3.65539"
       id="path4023-6-5-6-5"
       inkscape:connector-curvature="0" /><path
       style="fill:none;fill-opacity:1;stroke:#000000;stroke-width:2;stroke-linecap:butt;stroke-linejoin:miter;stroke-miterlimit:4;stroke-dasharray:none;stroke-opacity:1"
       d="m -94.400861,290.81836 c 0.338318,10.43057 11.190512,16.29095 18.390218,22.62934 3.080947,2.71243 4.59535,6.2264 6.347009,9.42384 0.506157,0.92385 1.454499,2.6127 1.299106,3.74665 -0.159628,1.19692 -1.406816,2.20448 -1.857224,3.16008 -2.27717,4.83132 -4.193557,9.9378 -6.407779,14.63529 -1.475447,3.13055 1.327188,6.87768 -1.065162,9.9768 -1.574026,2.0388 -5.424031,-16.52689 -5.556127,-17.08472 -1.1015,-4.6495 -2.432012,-10.04749 -5.13717,-14.15835 -3.402798,-5.17127 -1.627359,-14.62966 -4.624746,-20.10082 -0.835274,-1.52476 -2.011393,-2.70137 -2.416399,-4.41083 -0.343159,-1.44852 -2.914647,-9.52061 1.028555,-7.81725 z"
       id="path4039-9-8-2-0"
       inkscape:connector-curvature="0" /><path
       style="fill:none;fill-opacity:1;stroke:#000000;stroke-width:2;stroke-linecap:butt;stroke-linejoin:miter;stroke-miterlimit:4;stroke-dasharray:none;stroke-opacity:1"
       d="m -67.631595,325.99309 c -0.16557,-1.27813 -0.378148,-2.40172 -0.318289,-3.65969 0.486588,-10.2356 -13.098756,-14.68183 -10.371301,-23.51585 1.894371,-6.1355 11.113512,-3.45576 8.938762,-12.63538 -1.512819,-6.38603 -14.874902,-3.65508 -17.588473,-0.13992 -2.746067,3.55734 0.661032,7.75665 2.492354,11.09932 0.902187,1.64677 -0.245063,3.7862 -1.050335,4.82949 -0.200369,0.25959 -2.907627,1.72484 -2.500105,2.18299 1.098175,1.23508 8.194473,6.15882 9.932788,7.19185 2.052325,1.21961 5.615918,6.90842 7.295947,8.79781 1.515807,1.70469 1.196562,4.29109 3.168652,5.84938 z"
       id="path4019-7-9-6-3"
       inkscape:connector-curvature="0" /><path
       style="fill:none;fill-opacity:1;stroke:#000000;stroke-width:1.78052;stroke-linecap:butt;stroke-linejoin:miter;stroke-miterlimit:4;stroke-dasharray:none;stroke-opacity:1"
       d="m 107.4061,49.038128 c 1.53257,-0.99881 5.06804,0.1889 6.50624,-0.43873 0.60944,-0.266 2.16957,-2.62471 2.87065,-3.236 0.9571,-0.83455 8.67166,-0.86369 9.40076,-0.24056 0.78186,0.66835 0.37909,2.53339 0.38466,3.3289 0.0123,1.77788 0.63039,4.89961 -0.19724,6.34888 -0.41919,0.73413 -2.03915,0.73546 -3.00842,0.73881 -3.75546,0.0132 -6.85609,0.0486 -8.4565,-2.67663 -0.36749,-0.62559 -0.47185,-1.43779 -0.97731,-1.86981 -1.17791,-1.00693 -4.01865,0.51494 -5.42505,-0.0857 -1.68847,-0.72088 -0.91047,-2.13263 0.34427,-2.49886"
       id="path4026-2-8-0-4-6"
       inkscape:connector-curvature="0"
       clip-path="url(#clipath_lpe_path-effect5-7-6-8)"
       inkscape:path-effect="#path-effect5-7-6-8"
       inkscape:original-d="m 107.4061,49.038128 c 1.53257,-0.99881 5.06804,0.1889 6.50624,-0.43873 0.60944,-0.266 2.16957,-2.62471 2.87065,-3.236 0.9571,-0.83455 8.67166,-0.86369 9.40076,-0.24056 0.78186,0.66835 0.37909,2.53339 0.38466,3.3289 0.0123,1.77788 0.63039,4.89961 -0.19724,6.34888 -0.41919,0.73413 -2.03915,0.73546 -3.00842,0.73881 -3.75546,0.0132 -6.85609,0.0486 -8.4565,-2.67663 -0.36749,-0.62559 -0.47185,-1.43779 -0.97731,-1.86981 -1.17791,-1.00693 -4.01865,0.51494 -5.42505,-0.0857 -1.68847,-0.72088 -0.91047,-2.13263 0.34427,-2.49886"
       transform="matrix(1.1134119,0.14848344,-0.14848344,1.1134119,-167.69815,240.73388)" /><path
       style="fill:none;fill-opacity:0.854902;stroke:#030302;stroke-width:2;stroke-linejoin:round;stroke-dasharray:none;stroke-opacity:0.85098"
       d="m -39.133315,318.53475 c -1.073081,-0.0803 -2.305105,-0.44017 -3.208011,-1.04211 -0.528813,-0.35254 -0.688475,-1.07484 -1.07489,-1.59005 -3.020931,-4.02791 1.137119,-6.24974 4.788765,-5.03252 2.075813,0.69194 3.037641,6.56623 1.123857,7.86623 -0.303139,0.20592 -1.245462,-0.18776 -1.629721,-0.20155 z"
       id="path17" /></g></svg>
