<?xml version="1.0" encoding="UTF-8" standalone="no"?>
<!-- Created with Inkscape (http://www.inkscape.org/) -->

<svg
   width="56.618622mm"
   height="64.769836mm"
   viewBox="0 0 56.618623 64.769835"
   version="1.1"
   id="svg1"
   xml:space="preserve"
   xmlns="http://www.w3.org/2000/svg"
   xmlns:svg="http://www.w3.org/2000/svg"><defs
     id="defs1"><clipPath
       clipPathUnits="userSpaceOnUse"
       id="clipath_lpe_path-effect5-7-6-8"><path
         style="display:none;fill:#f5f5f5;fill-opacity:1;stroke:#000000;stroke-width:0.28838;stroke-linecap:butt;stroke-linejoin:miter;stroke-miterlimit:4;stroke-dasharray:none;stroke-opacity:1"
         d="m 117.34066,50.103703 c -1.83163,-3.00895 5.57963,-3.97048 6.61458,-2.208228 0.50885,0.866598 0.25838,2.504599 0.26556,3.5375 0,0.281879 0.21894,1.588889 0.0123,1.769049 -2.1037,1.834309 -6.88099,-1.44522 -6.89251,-3.098321 z"
         id="path15" /><path
         id="lpe_path-effect5-7-6-8"
         style="fill:#f5f5f5;fill-opacity:1;stroke:#000000;stroke-width:0.28838;stroke-linecap:butt;stroke-linejoin:miter;stroke-miterlimit:4;stroke-dasharray:none;stroke-opacity:1"
         class="powerclip"
         d="m 102.27506,39.451777 h 29.76821 v 21.330016 h -29.76821 z m 15.0656,10.651926 h -7e-5 c 0.0115,1.653101 4.78881,4.93263 6.89251,3.098321 0.20664,-0.18016 -0.0123,-1.48717 -0.0123,-1.769049 -0.007,-1.032901 0.24329,-2.670902 -0.26556,-3.5375 -1.03495,-1.762252 -8.44621,-0.800722 -6.61458,2.208228 z" /></clipPath></defs><g
     id="layer1"
     transform="translate(96.968984,-281.99802)"><path
       style="fill:none;fill-opacity:1;stroke:#000000;stroke-width:0.474;stroke-linecap:butt;stroke-linejoin:miter;stroke-miterlimit:4;stroke-dasharray:none;stroke-opacity:1"
       d="m -73.659979,283.79456 c -0.0501,-0.85084 1.04793,-1.22792 1.99418,-1.37498 5.19042,-0.80609 6.47994,1.46741 10.28495,3.72873 1.56784,0.93163 4.21989,0.12425 5.45339,0.85733 0.26932,0.15994 -0.01,0.95245 -0.11002,1.08225 -0.37887,0.49071 0.42249,1.97844 0.04,2.2307 -2.697,1.77919 -8.67265,-1.19572 -9.26734,3.14358 -0.29595,2.15117 -0.51855,5.40974 0.71679,7.66459 1.10296,2.01316 5.66276,5.80811 4.96438,8.07007 -0.81684,2.64555 -6.35004,-8.12112 -6.4749,-8.26152 -1.21037,-1.36123 -1.09567,-3.41789 -2.37028,-4.8514 -1.82365,-2.05098 -6.48427,-1.93232 -7.85269,-3.25424"
       id="path4023-6-5-6-5" /><path
       style="fill:none;fill-opacity:1;stroke:#000000;stroke-width:0.541903;stroke-linecap:butt;stroke-linejoin:miter;stroke-miterlimit:4;stroke-dasharray:none;stroke-opacity:1"
       d="m -94.763889,289.76422 c 0.30119,9.28591 9.96245,14.50316 16.37205,20.14597 2.74284,2.41476 4.09105,5.5431 5.65048,8.38965 0.45061,0.82247 1.29488,2.32598 1.15654,3.33549 -0.14211,1.06557 -1.25243,1.96256 -1.65341,2.81329 -2.02727,4.30112 -3.73335,8.84721 -5.70458,13.02919 -1.31353,2.787 1.18154,6.12291 -0.94827,8.88193 -1.40129,1.81506 -4.82879,-14.7132 -4.94639,-15.20982 -0.98062,-4.13925 -2.16512,-8.94486 -4.57341,-12.60459 -3.02937,-4.60377 -1.44877,-13.02418 -4.11722,-17.89493 -0.74361,-1.35743 -1.79066,-2.40492 -2.15122,-3.92678 -0.3055,-1.28956 -2.59479,-8.4758 0.91568,-6.95937 z"
       id="path4039-9-8-2-0" /><path
       style="fill:none;fill-opacity:1;stroke:#000000;stroke-width:0.432;stroke-linecap:butt;stroke-linejoin:miter;stroke-miterlimit:4;stroke-dasharray:none;stroke-opacity:1"
       d="m -70.932319,321.07883 c -0.1474,-1.13787 -0.33665,-2.13815 -0.28336,-3.25807 0.43319,-9.11233 -11.66128,-13.07063 -9.23314,-20.93519 1.68648,-5.46218 9.8939,-3.07652 7.95781,-11.24876 -1.3468,-5.68522 -13.24251,-3.25396 -15.65829,-0.12456 -2.44471,3.16695 0.58849,6.90542 2.21884,9.88126 0.80318,1.46605 -0.21817,3.3707 -0.93507,4.2995 -0.17838,0.2311 -2.58854,1.53555 -2.22574,1.94342 0.97766,1.09954 7.2952,5.48295 8.84275,6.40261 1.8271,1.08577 4.99962,6.15028 6.49528,7.83233 1.34946,1.51761 1.06525,3.82018 2.82092,5.20746 z"
       id="path4019-7-9-6-3" /><path
       style="fill:none;fill-opacity:1;stroke:#000000;stroke-width:0.48;stroke-linecap:butt;stroke-linejoin:miter;stroke-miterlimit:4;stroke-dasharray:none;stroke-opacity:1"
       d="m 107.4061,49.038128 c 1.53257,-0.99881 5.06804,0.1889 6.50624,-0.43873 0.60944,-0.266 2.16957,-2.62471 2.87065,-3.236 0.9571,-0.83455 8.67166,-0.86369 9.40076,-0.24056 0.78186,0.66835 0.37909,2.53339 0.38466,3.3289 0.0123,1.77788 0.63039,4.89961 -0.19724,6.34888 -0.41919,0.73413 -2.03915,0.73546 -3.00842,0.73881 -3.75546,0.0132 -6.85609,0.0486 -8.4565,-2.67663 -0.36749,-0.62559 -0.47185,-1.43779 -0.97731,-1.86981 -1.17791,-1.00693 -4.01865,0.51494 -5.42505,-0.0857 -1.68847,-0.72088 -0.91047,-2.13263 0.34427,-2.49886"
       id="path4026-2-8-0-4-6"
       clip-path="url(#clipath_lpe_path-effect5-7-6-8)"
       transform="rotate(7.5960855,-1926.6142,-1082.6236)" /><path
       style="fill:none;fill-opacity:0.854902;stroke:#030302;stroke-width:0.387001;stroke-linejoin:round;stroke-opacity:0.85098"
       d="m -45.561479,314.43898 c -0.95532,-0.0715 -2.05214,-0.39187 -2.85596,-0.92775 -0.47078,-0.31385 -0.61292,-0.95689 -0.95693,-1.41556 -2.68941,-3.58588 1.01233,-5.56388 4.26324,-4.48024 1.84801,0.616 2.704286,5.84564 1.000523,7.00298 -0.269872,0.18332 -1.108783,-0.16716 -1.450873,-0.17943 z"
       id="path17" /></g></svg>
