<?xml version="1.0" encoding="UTF-8" standalone="no"?>
<!-- Created with Inkscape (http://www.inkscape.org/) -->

<svg
   width="69.027344mm"
   height="68.458725mm"
   viewBox="0 0 69.027345 68.458723"
   version="1.1"
   id="svg1"
   xml:space="preserve"
   xmlns="http://www.w3.org/2000/svg"
   xmlns:svg="http://www.w3.org/2000/svg"><defs
     id="defs1" /><g
     id="layer1"
     transform="translate(189.28551,-286.79936)"><path
       style="fill:none;fill-opacity:0.854902;stroke:#030302;stroke-width:0.48;stroke-linejoin:round;stroke-dasharray:none;stroke-opacity:0.85098"
       d="m -120.49797,325.54575 c -11.08277,-6.10766 -40.92478,-1.24521 -46.89157,10.68836 -2.06533,4.13063 6.45294,16.12738 -0.84143,18.55883 -10.35063,3.45021 -19.26772,-33.43723 -20.68834,-41.96099 -1.03595,-6.21565 4.59359,-21.74256 10.44874,-24.67018 13.61074,-6.80548 10.8435,19.35046 15.95076,24.45772 9.35539,9.3554 21.13933,-1.95596 31.28068,0.57938 6.4688,1.61719 6.76363,9.08566 10.74116,12.34688 z"
       id="path19" /><path
       style="fill:none;fill-opacity:0.854902;stroke:#030302;stroke-width:0.4;stroke-linejoin:round;stroke-dasharray:none;stroke-opacity:0.85098"
       d="m -170.19812,310.57379 c 0.83122,-30.14374 -16.76538,-15.172 -14.8457,3.98586"
       id="path20" /><path
       style="fill:none;fill-opacity:0.854902;stroke:#030302;stroke-width:0.4;stroke-linejoin:round;stroke-dasharray:none;stroke-opacity:0.85098"
       d="m -180.65711,332.04437 c 1.00188,-4.35956 -1.89501,-7.92617 -2.70635,-12.0136 -1.10505,-5.56713 4.1582,-22.26227 10.87182,-22.80924"
       id="path21" /><path
       style="fill:none;fill-opacity:0.854902;stroke:#030302;stroke-width:0.4;stroke-linejoin:round;stroke-dasharray:none;stroke-opacity:0.85098"
       d="m -170.84643,333.28468 c -1.95507,-3.75856 -6.4449,-7.20975 -3.64143,-12.1053"
       id="path22" /><path
       style="fill:none;fill-opacity:0.854902;stroke:#030302;stroke-width:0.4;stroke-linejoin:round;stroke-dasharray:none;stroke-opacity:0.85098"
       d="m -180.01377,322.45251 c -0.92124,-3.20193 0.24461,-6.41658 2.86251,-8.04461"
       id="path30" /><path
       style="fill:none;fill-opacity:0.854902;stroke:#030302;stroke-width:0.4;stroke-linejoin:round;stroke-dasharray:none;stroke-opacity:0.85098"
       d="m -172.92013,303.78621 c -8.92697,4.36945 -2.76158,5.76019 -0.37415,7.81124"
       id="path48" /><path
       style="fill:none;fill-opacity:0.854902;stroke:#030302;stroke-width:0.4;stroke-linejoin:round;stroke-dasharray:none;stroke-opacity:0.85098"
       d="m -172.78748,319.96596 c 2.09349,-0.92681 3.28583,-1.35704 3.74246,-3.56177"
       id="path49" /></g></svg>
